<?xml version="1.0" encoding="UTF-8" standalone="no"?>
<!-- Created with Inkscape (http://www.inkscape.org/) -->

<svg
   xmlns:dc="http://purl.org/dc/elements/1.1/"
   xmlns:cc="http://creativecommons.org/ns#"
   xmlns:rdf="http://www.w3.org/1999/02/22-rdf-syntax-ns#"
   xmlns:svg="http://www.w3.org/2000/svg"
   xmlns="http://www.w3.org/2000/svg"
   xmlns:sodipodi="http://sodipodi.sourceforge.net/DTD/sodipodi-0.dtd"
   xmlns:inkscape="http://www.inkscape.org/namespaces/inkscape"
   width="210mm"
   height="297mm"
   viewBox="0 0 744.09448819 1052.3622047"
   id="svg2"
   version="1.1"
   inkscape:version="0.91 r13725"
   sodipodi:docname="klatch_logo.svg">
  <defs
     id="defs4" />
  <sodipodi:namedview
     id="base"
     pagecolor="#ffffff"
     bordercolor="#666666"
     borderopacity="1.0"
     inkscape:pageopacity="0.0"
     inkscape:pageshadow="2"
     inkscape:zoom="1.979899"
     inkscape:cx="49.388187"
     inkscape:cy="872.90273"
     inkscape:document-units="px"
     inkscape:current-layer="layer1"
     showgrid="false"
     inkscape:window-width="1319"
     inkscape:window-height="744"
     inkscape:window-x="47"
     inkscape:window-y="24"
     inkscape:window-maximized="1" />
  <metadata
     id="metadata7">
    <rdf:RDF>
      <cc:Work
         rdf:about="">
        <dc:format>image/svg+xml</dc:format>
        <dc:type
           rdf:resource="http://purl.org/dc/dcmitype/StillImage" />
        <dc:title></dc:title>
      </cc:Work>
    </rdf:RDF>
  </metadata>
  <g
     inkscape:label="Layer 1"
     inkscape:groupmode="layer"
     id="layer1">
    <g
       id="g3401"
       transform="translate(-154.28571,-100)"
       inkscape:export-xdpi="300"
       inkscape:export-ydpi="300">
      <path
         style="fill:#fdfdfd"
         d="m 207.41071,200.93367 0,-38.75 126.875,0 126.875,0 0,38.75 0,38.75 -126.875,0 -126.875,0 0,-38.75 z"
         id="path3429"
         inkscape:connector-curvature="0" />
      <path
         style="fill:#c7c7c7"
         d="m 438.12896,234.78671 c -1.92241,-2.12425 -1.94356,-2.74242 -0.23381,-6.83444 1.03388,-2.47442 2.47648,-8.78907 3.20578,-14.03256 2.02693,-14.57308 -0.82035,-21.96211 -7.63002,-19.8008 -4.28398,1.35968 -6.0602,7.14091 -6.0602,19.72463 0,13.46995 -0.87461,14.97384 -8.35026,14.35829 l -4.77474,-0.39316 -0.33641,-27.8125 -0.33642,-27.8125 5.60493,0 c 6.74997,0 8.1929,1.95381 8.1929,11.09369 l 0,6.25805 3.4375,-1.79317 c 7.53321,-3.92969 17.97571,-0.56515 21.87306,7.04744 4.39808,8.59065 1.13934,27.92208 -6.1871,36.70304 -4.49825,5.39128 -5.98124,5.97246 -8.40521,3.29399 z m -218.21825,-31.97804 0,-25.74976 7.1875,0.37488 7.1875,0.37488 0.36305,10.3125 c 0.19968,5.67187 0.84636,10.3125 1.43707,10.3125 1.45285,0 13.22697,-12.97709 15.93782,-17.56619 1.79939,-3.04612 2.99495,-3.68381 6.90657,-3.68381 7.85608,0 6.22901,4.65637 -6.14745,17.5928 l -5.47029,5.7178 8.79911,12.33385 c 4.83952,6.78362 8.79912,13.06998 8.79912,13.9697 0,1.147 -2.02876,1.63585 -6.7889,1.63585 l -6.78891,0 -7.11495,-10.09615 c -3.91322,-5.55288 -7.57957,-9.631 -8.14744,-9.0625 -0.56787,0.56851 -1.20176,4.97115 -1.40864,9.78365 l -0.37616,8.75 -7.1875,0.37488 -7.1875,0.37488 0,-25.74976 z m 50.28846,24.61251 c -1.22235,-0.80109 -1.50929,-7.61897 -1.25,-29.70114 0.32463,-27.64674 0.42441,-28.66137 2.81879,-28.66137 1.59875,0 3.94143,2.22455 6.5819,6.25 l 4.09965,6.25 -0.3319,23.125 -0.3319,23.125 -5,0.32614 c -2.75,0.17938 -5.71394,-0.14176 -6.58654,-0.71363 z m 27.51261,-1.48076 c -10.92267,-6.65963 -13.55119,-23.5444 -5.15409,-33.10818 6.70624,-7.63798 17.36934,-8.62886 24.87685,-2.3117 l 3.59516,3.02512 2.12536,-3.24371 c 1.38558,-2.11466 3.03997,-3.11311 4.75301,-2.8685 2.54507,0.36343 2.62764,1.0037 2.62764,20.37522 l 0,20 -4.77474,0.39316 c -2.6261,0.21623 -5.54327,-0.24468 -6.48259,-1.02424 -1.22958,-1.02047 -2.40735,-1.04305 -4.20559,-0.0807 -4.03866,2.16143 -12.88578,1.57207 -17.36101,-1.1565 z m 16.56247,-7.49409 c 4.82836,-5.33527 3.40417,-22.71575 -2.00197,-24.4316 -3.1862,-1.01126 -8.36216,2.35019 -9.91736,6.44069 -1.72241,4.53026 -1.4694,11.14993 0.61701,16.1434 1.47561,3.53165 2.48197,4.33485 5.43126,4.33485 2.02642,0 4.611,-1.09499 5.87106,-2.48734 z m 28.9698,9.15401 c -0.45834,-0.45834 -0.83334,-8.29597 -0.83334,-17.41698 l 0,-16.58363 -3.4375,-0.39553 c -2.46126,-0.2832 -3.55094,-1.19427 -3.83694,-3.20803 -0.3398,-2.39258 0.17344,-2.8125 3.4375,-2.8125 l 3.83694,0 0,-7.5 0,-7.5 5.58102,0 c 6.51007,0 8.16898,1.99947 8.16898,9.84595 0,5.00085 0.01,5.01103 5.3125,5.39468 4.35104,0.31481 5.3125,0.83682 5.3125,2.88437 0,2.04755 -0.96146,2.56956 -5.3125,2.88437 l -5.3125,0.38437 0,15.92813 c 0,10.72188 -0.49029,16.41842 -1.5,17.42813 -1.58716,1.58716 -10.00464,2.07869 -11.41666,0.66667 z m 35.28901,-1.98926 c -5.30065,-3.52256 -9.87888,-12.35428 -9.85179,-19.00477 0.0491,-12.05344 10.95314,-21.56648 22.98741,-20.05497 7.57593,0.95153 12.22802,3.27356 14.98335,7.47875 3.88518,5.92952 -1.39836,7.94868 -6.56002,2.50698 -4.00488,-4.22215 -9.99356,-4.16993 -14.02591,0.1223 -2.59514,2.76241 -3.03039,4.44913 -3.03039,11.74377 0,10.26112 2.31295,13.78053 9.05652,13.78053 3.16563,0 5.12318,-0.94489 7.44915,-3.59561 3.96144,-4.51455 8.2015,-4.01062 7.62409,0.90611 -0.98207,8.36254 -19.34882,12.28634 -28.63241,6.11691 z"
         id="path3427"
         inkscape:connector-curvature="0" />
      <path
         style="fill:#dbb0a1"
         d="m 438.18407,234.84761 c -1.87772,-2.07487 -1.88907,-2.68004 -0.12917,-6.89205 4.8387,-11.58066 4.71308,-31.90798 -0.20885,-33.7967 -6.71428,-2.57651 -10.34615,4.06123 -11.46789,20.95903 l -0.84245,12.69078 -5.625,0 -5.625,0 0,-27.5 0,-27.5 5.625,0 5.625,0 0.34672,6.875 c 0.5048,10.00923 0.78435,10.4489 5.19374,8.16871 7.67139,-3.96702 17.70963,-0.74974 21.6451,6.9373 5.45628,10.65761 -1.1543,35.7242 -10.92485,41.42575 -0.87782,0.51225 -2.44946,-0.0829 -3.61235,-1.36783 z m -218.27336,-32.03894 0,-25.74976 7.1875,0.37488 7.1875,0.37488 0.36305,10.3125 c 0.19968,5.67187 0.7814,10.3125 1.2927,10.3125 1.31005,0 13.02986,-12.3103 16.36306,-17.1875 2.22445,-3.25484 3.6293,-4.0625 7.06631,-4.0625 7.39094,0 5.53836,4.91986 -6.64724,17.65288 l -5.52947,5.77789 8.85829,12.3073 c 4.87207,6.76902 8.8583,13.02834 8.8583,13.90962 0,2.12725 -11.33231,2.15958 -13.95645,0.0398 -1.06385,-0.85938 -4.62202,-5.39621 -7.90705,-10.08186 -3.28503,-4.68565 -6.43097,-8.06065 -6.99098,-7.5 -0.56001,0.56065 -1.18748,4.95686 -1.39436,9.76936 l -0.37616,8.75 -7.1875,0.37488 -7.1875,0.37488 0,-25.74976 z m 50.3125,24.82678 c -1.18504,-0.50065 -1.5625,-7.54793 -1.5625,-29.17221 0,-24.84619 0.25422,-28.60965 1.97723,-29.27083 1.08748,-0.41731 2.20674,-0.75874 2.48724,-0.75874 0.28049,0 2.49757,2.9935 4.92682,6.65222 l 4.41683,6.65223 -0.34156,23.03527 -0.34156,23.03528 -5,0.24345 c -2.75,0.1339 -5.70313,-0.0536 -6.5625,-0.41667 z m 27.05985,-2.02437 c -5.11317,-3.39797 -9.88262,-12.30222 -9.8449,-18.37977 0.0577,-9.29956 6.88865,-18.59854 15.19343,-20.68291 4.28853,-1.07635 12.60111,1.28798 15.39935,4.38 2.94721,3.25663 3.67936,3.16176 5.44122,-0.70508 1.04929,-2.30295 2.25427,-3.0979 4.26314,-2.8125 2.76728,0.39314 2.80041,0.63442 2.80041,20.39785 l 0,20 -4.77474,0.39316 c -2.6261,0.21623 -5.54327,-0.24468 -6.48259,-1.02424 -1.22958,-1.02047 -2.40735,-1.04305 -4.20559,-0.0807 -4.35064,2.3284 -13.15697,1.59287 -17.78973,-1.48584 z m 15.87802,-5.63405 c 2.68121,-1.79029 4.24963,-6.45992 4.24963,-12.65237 0,-10.95999 -3.80099,-15.52277 -10.41915,-12.50734 -5.56618,2.53612 -7.5559,13.31801 -4.01963,21.7815 1.45965,3.49343 2.49083,4.33113 5.3125,4.31571 1.9257,-0.0105 4.1202,-0.4324 4.87665,-0.9375 z m 30.81213,7.62879 c -1.14049,-0.4602 -1.5625,-5.13764 -1.5625,-17.31829 l 0,-16.6878 -3.4375,-0.39553 c -2.46126,-0.2832 -3.55094,-1.19427 -3.83694,-3.20803 -0.33857,-2.38392 0.17574,-2.8125 3.37513,-2.8125 3.71831,0 3.78013,-0.1071 4.14944,-7.1875 l 0.37487,-7.1875 5.625,0 5.625,0 0.625,6.875 0.625,6.875 5.625,0.625 c 4.58334,0.50926 5.625,1.08796 5.625,3.125 0,2.03704 -1.04166,2.61574 -5.625,3.125 l -5.625,0.625 -0.33588,15.625 c -0.18473,8.59375 -0.58895,16.32812 -0.89827,17.1875 -0.54816,1.52297 -7.2018,1.99624 -10.32835,0.73465 z m 33.81175,-2.79474 c -12.76774,-9.2489 -11.60061,-29.09181 2.12575,-36.14123 4.55006,-2.33677 6.79701,-2.74161 11.75797,-2.11852 7.57593,0.95154 12.22802,3.27357 14.98335,7.47876 3.86583,5.9 -1.19598,7.95583 -6.22579,2.52858 -3.77559,-4.07392 -10.60227,-4.26909 -14.20128,-0.40599 -4.69044,5.03459 -5.03891,18.72466 -0.60145,23.62801 3.17475,3.50806 9.89814,3.15568 13.77584,-0.72202 4.35657,-4.35657 8.30474,-4.21851 7.78189,0.27212 -0.63772,5.47719 -7.26658,9.10288 -16.64283,9.10288 -6.5697,0 -8.51564,-0.55274 -12.75345,-3.62259 z"
         id="path3425"
         inkscape:connector-curvature="0" />
      <path
         style="fill:#abaaaa"
         d="m 438.86083,235.63379 c -1.87864,-1.87864 -1.8072,-4.1899 0.3192,-10.32512 4.31025,-12.43624 3.56443,-29.27012 -1.38088,-31.16781 -6.66489,-2.55756 -10.30217,4.12307 -11.42099,20.97703 l -0.84245,12.69078 -5.625,0 -5.625,0 -0.33687,-27.1875 -0.33688,-27.1875 6.21472,0 6.21474,0 0.37214,7.8125 c 0.29786,6.25292 0.74645,7.70104 2.24715,7.25416 1.03125,-0.30708 5.05695,-0.77628 8.946,-1.04265 11.69628,-0.80112 17.304,5.1065 17.304,18.2294 0,14.14571 -11.11393,34.88266 -16.04988,29.94671 z m -218.6637,-32.44946 0.33858,-25.37566 6.875,0 6.875,0 0.625,11.05805 0.625,11.05804 8.23701,-8.55804 c 4.53036,-4.70693 8.90953,-9.82368 9.73148,-11.37055 1.10947,-2.08796 2.6102,-2.8125 5.82549,-2.8125 7.43547,0 5.60389,4.89437 -6.6061,17.65288 l -5.52947,5.77789 8.85829,12.3073 c 4.87207,6.76902 8.8583,13.02834 8.8583,13.90962 0,2.12725 -11.33231,2.15958 -13.95645,0.0398 -1.06385,-0.85938 -4.62202,-5.39621 -7.90705,-10.08186 -3.28503,-4.68565 -6.43097,-8.06065 -6.99098,-7.5 -0.56001,0.56065 -1.18748,4.95686 -1.39436,9.76936 l -0.37616,8.75 -7.21358,0.37566 -7.21359,0.37566 0.33859,-25.37566 z m 49.89319,23.59075 c -1.06335,-1.28125 -1.3844,-9.46938 -1.14192,-29.12438 0.33003,-26.75229 0.39427,-27.35016 2.97815,-27.71897 1.9871,-0.28363 3.61878,1.14705 6.59131,5.77933 l 3.95047,6.15627 -0.34131,22.97067 -0.34131,22.97067 -5.10809,0.37438 c -3.28696,0.24091 -5.63545,-0.26105 -6.5873,-1.40797 z m 27.26033,-1.15816 c -6.2532,-4.21403 -9.10661,-9.9859 -9.10661,-18.42082 0,-12.49371 6.87729,-20.01243 18.30516,-20.01243 3.84383,0 6.93079,0.96238 10.19724,3.17906 4.44898,3.01916 4.77012,3.06631 6.38468,0.9375 0.93505,-1.23286 1.71797,-2.70256 1.73984,-3.266 0.0219,-0.56344 1.30537,-0.84469 2.85225,-0.625 2.78284,0.39523 2.8125,0.61039 2.8125,20.39944 l 0,20 -4.77474,0.39316 c -2.6261,0.21623 -5.54327,-0.24468 -6.48259,-1.02424 -1.22958,-1.02047 -2.40735,-1.04305 -4.20559,-0.0807 -4.35399,2.33019 -13.15939,1.59484 -17.72214,-1.48 z m 16.22889,-5.85208 c 3.00801,-3.00802 5.23717,-10.75239 4.31906,-15.00501 -2.13908,-9.90818 -5.08619,-12.59467 -10.90704,-9.94251 -7.09629,3.23329 -7.88194,20.69991 -1.16065,25.80385 2.87312,2.18176 4.93883,1.95347 7.74863,-0.85633 z m 30.39367,7.84098 c -1.14104,-0.46042 -1.5625,-5.15424 -1.5625,-17.40132 l 0,-16.77083 -2.99126,0 c -2.97087,0 -5.16013,-2.93477 -3.81403,-5.1128 0.38656,-0.62546 2.07589,-1.1372 3.75406,-1.1372 2.86513,0 3.05123,-0.41933 3.05123,-6.875 l 0,-6.875 6.18467,0 6.18468,0 0.37782,6.5625 0.37783,6.5625 5.625,0.625 c 4.58334,0.50926 5.625,1.08796 5.625,3.125 0,2.03704 -1.04166,2.61574 -5.625,3.125 l -5.625,0.625 -0.33588,15.625 c -0.18473,8.59375 -0.58895,16.32812 -0.89827,17.1875 -0.54816,1.52297 -7.2018,1.99624 -10.32835,0.73465 z m 34.36622,-2.333 c -6.19888,-4.21225 -8.88936,-9.65817 -8.9798,-18.17646 -0.0576,-5.42119 0.60515,-7.95429 2.99394,-11.44383 4.47366,-6.53513 8.53334,-8.47019 17.75,-8.46062 8.38961,0.009 13.15879,2.08214 16.82339,7.31409 3.80656,5.43463 -1.74255,7.18682 -6.50073,2.05267 -3.77558,-4.07392 -10.60226,-4.26909 -14.20127,-0.406 -4.69044,5.0346 -5.03891,18.72467 -0.60145,23.62802 3.14935,3.47999 9.51743,3.09966 14.20975,-0.84867 4.4193,-3.71859 7.96467,-3.22887 7.35262,1.01561 -1.18246,8.20023 -19.60938,11.60193 -28.84645,5.32519 z"
         id="path3423"
         inkscape:connector-curvature="0" />
      <path
         style="fill:#d58f78"
         d="m 438.64761,234.04289 c -1.26741,-1.52715 -1.18169,-3.14981 0.44577,-8.4375 3.26274,-10.60071 3.93098,-22.03334 1.61223,-27.58291 -1.68995,-4.04461 -2.49137,-4.70039 -5.33081,-4.36204 -6.24505,0.74419 -8.47132,5.79779 -9.01415,20.46205 -0.46523,12.56776 -0.60227,13.11453 -3.46715,13.83357 -1.64054,0.41175 -4.38904,0.39568 -6.10779,-0.0357 l -3.125,-0.78433 0,-26.85119 0,-26.85118 6.25,0 6.25,0 0,8.82088 0,8.82088 2.77814,-1.94588 c 1.64987,-1.15562 5.4183,-1.94588 9.27908,-1.94588 11.46217,0 17.72458,8.39169 16.33194,21.88495 -0.8211,7.95574 -5.19026,18.78588 -9.45128,23.42755 -3.6403,3.96549 -4.31025,4.12612 -6.45098,1.54672 z m -216.5755,-6.4759 c -2.03833,-0.53102 -2.18679,-2.52378 -1.875,-25.1675 l 0.3386,-24.59082 6.12906,-0.38881 c 4.05693,-0.25736 6.48044,0.16524 7.16836,1.25 0.57162,0.90134 1.04791,6.1212 1.05844,11.59968 l 0.0191,9.96087 7.57021,-7.46087 c 4.16362,-4.10348 8.7095,-9.289 10.10195,-11.52337 2.05488,-3.29732 3.33657,-4.0625 6.80479,-4.0625 3.31956,0 4.27305,0.51445 4.27305,2.30551 0,2.239 -11.12702,16.05822 -14.54895,18.0691 -0.93558,0.54979 -1.70105,1.60844 -1.70105,2.35257 0,0.74412 4.0084,6.96728 8.90756,13.82924 7.01801,9.82972 8.54268,12.72296 7.1875,13.63914 -2.4043,1.62544 -12.51651,0.4256 -13.7022,-1.62579 -2.91296,-5.03979 -12.59611,-17.31977 -13.6572,-17.31977 -0.70279,0 -1.23566,3.98523 -1.23566,9.24126 0,7.27371 -0.42097,9.40281 -1.97723,10 -2.18338,0.83784 -7.43115,0.78569 -10.86137,-0.10795 z m 48.67727,-0.69751 c -1.92521,-1.40774 -2.10538,-4.31446 -1.80141,-29.0625 0.33214,-27.04281 0.38215,-27.50464 3.01863,-27.8805 2.10214,-0.29969 3.51884,1.0824 6.5625,6.40216 l 3.88161,6.78435 0,21.36636 c 0,19.84498 -0.17216,21.4585 -2.41782,22.66034 -3.23584,1.73177 -6.64181,1.6322 -9.24351,-0.27021 z m 27.93205,-0.75011 c -10.69664,-5.73668 -14.00394,-19.95229 -7.24794,-31.15351 5.84122,-9.68452 21.21949,-10.62246 27.97849,-1.70643 1.14213,1.50662 1.7728,1.14422 3.70701,-2.13014 2.49943,-4.2312 6.04676,-5.18994 7.28298,-1.96839 0.41731,1.08748 0.75874,9.81829 0.75874,19.4018 l 0,17.42457 -3.21311,1.46399 c -2.41859,1.10198 -4.14394,1.11264 -6.97748,0.0431 -2.50002,-0.94366 -4.80687,-1.02453 -6.86826,-0.24079 -4.82108,1.83297 -10.69313,1.40107 -15.42043,-1.13421 z m 14.91335,-6.36977 c 3.89089,-3.89089 5.25908,-11.01485 3.47571,-18.09749 -1.74099,-6.91429 -4.05908,-8.95396 -8.81857,-7.7594 -4.98031,1.24998 -7.47332,7.16241 -6.82124,16.1773 0.42622,5.8924 1.14965,7.97799 3.39922,9.79958 3.64145,2.94866 5.72474,2.92015 8.76488,-0.11999 z m 31.00343,7.82241 c -1.94634,-0.50863 -2.1875,-2.42196 -2.1875,-17.355 0,-15.58517 -0.16755,-16.78334 -2.34695,-16.78334 -2.81513,0 -5.69129,-3.11785 -4.56189,-4.94524 0.44351,-0.71762 2.17944,-1.30476 3.85761,-1.30476 2.86513,0 3.05123,-0.41933 3.05123,-6.875 l 0,-6.875 6.25,0 6.25,0 0,6.875 0,6.875 5.49126,0 c 3.86651,0 5.71696,0.58815 6.25406,1.9878 1.23268,3.21232 -0.29307,4.2622 -6.1941,4.2622 l -5.55122,0 0,16.74126 c 0,19.00856 -0.5561,19.9467 -10.3125,17.39708 z m 34.48212,-2.43279 c -6.98337,-4.52811 -9.69138,-9.54036 -9.74815,-18.04285 -0.036,-5.39179 0.64557,-7.97323 3.02139,-11.44384 4.474,-6.53562 8.53224,-8.46886 17.7777,-8.46886 7.04185,0 8.49723,0.44297 12.61964,3.841 5.03887,4.15347 6.23749,8.659 2.30356,8.659 -1.29592,0 -3.27765,-1.40625 -4.40381,-3.125 -1.68105,-2.5656 -3.05264,-3.125 -7.66214,-3.125 -4.99295,0 -5.88879,0.44978 -8.09151,4.0625 -4.07744,6.68749 -3.04984,20.51702 1.76332,23.73086 3.0067,2.00762 9.37892,0.89744 13.17293,-2.29501 6.2143,-5.22899 10.73664,-1.31159 4.76495,4.12755 -7.20788,6.5651 -17.32826,7.38989 -25.51788,2.07965 z"
         id="path3421"
         inkscape:connector-curvature="0" />
      <path
         style="fill:#8c8c8c"
         d="m 438.68591,234.08904 c -1.21931,-1.46919 -1.1034,-3.05928 0.56953,-7.8125 2.86093,-8.12864 3.8034,-25.00976 1.62424,-29.09287 -2.36271,-4.42706 -7.97945,-4.25642 -11.41627,0.34683 -2.1239,2.84475 -2.68329,5.77986 -3.09697,16.25 -0.5288,13.38379 -1.07112,14.60132 -6.51823,14.63403 -5.92308,0.0356 -6.1875,-1.20584 -6.1875,-29.04935 l 0,-26.06849 5.9375,0.38099 5.9375,0.38099 0.625,8.50027 c 0.60754,8.26272 0.69488,8.44724 3.125,6.60226 1.46732,-1.114 5.17116,-1.91444 8.96659,-1.93778 11.41022,-0.0702 17.69061,8.34806 16.29757,21.8452 -0.8211,7.95574 -5.19026,18.78588 -9.45128,23.42755 -3.62858,3.95272 -4.31307,4.12274 -6.41268,1.59287 z m -216.5877,-7.00549 c -1.96188,-1.14269 -2.1875,-3.72378 -2.1875,-25.02437 l 0,-23.75027 7.1875,0.37488 7.1875,0.37488 0.625,10.625 0.625,10.625 7.09217,-7.14576 c 3.9007,-3.93016 8.1001,-8.85204 9.33201,-10.9375 1.86653,-3.15979 3.02825,-3.79174 6.97033,-3.79174 3.12823,0 4.73049,0.56921 4.73049,1.68051 0,1.77403 -11.64713,15.73886 -14.54895,17.4441 -0.93558,0.54979 -1.70105,1.60844 -1.70105,2.35257 0,0.74412 4.0084,6.96728 8.90756,13.82924 9.49086,13.29329 9.64465,14.63417 1.68307,14.67444 -5.20784,0.0263 -7.83202,-2.11736 -14.34006,-11.71441 -3.08314,-4.54655 -6.3133,-8.26645 -7.17814,-8.26645 -1.12145,0 -1.57243,2.65046 -1.57243,9.24126 0,7.27371 -0.42097,9.40281 -1.97723,10 -2.97062,1.13994 -8.36861,0.84531 -10.83527,-0.59138 z m 49.375,0.52227 c -1.1862,-0.47864 -1.5625,-7.52924 -1.5625,-29.27632 0,-22.09354 0.3574,-28.64145 1.5625,-28.62669 2.57333,0.0315 4.10965,1.5643 7.60821,7.59068 3.2529,5.60324 3.32929,6.22604 3.32929,27.14352 0,19.88683 -0.17187,21.50069 -2.41782,22.70268 -2.52864,1.35329 -5.86825,1.536 -8.51968,0.46613 z m 27.46023,-1.251 c -7.17096,-3.53443 -9.64773,-8.45605 -9.64773,-19.17115 0,-7.431 0.5184,-10.06592 2.5,-12.707 6.95402,-9.2683 21.03922,-9.90285 27.60693,-1.2437 1.12075,1.47765 1.84265,1.10689 4.14761,-2.13014 3.0497,-4.2829 5.67798,-5.02672 6.86172,-1.94193 0.41731,1.08748 0.75874,9.78644 0.75874,19.33102 0,15.87786 -0.20563,17.46384 -2.41782,18.64777 -3.37941,1.8086 -7.01232,1.61178 -8.74311,-0.4737 -1.26243,-1.52113 -1.93754,-1.52221 -4.84056,-0.008 -4.45363,2.32347 -11.15009,2.19822 -16.22578,-0.30348 z m 15.82315,-7.38413 c 4.97384,-6.32321 4.23796,-21.26107 -1.21491,-24.66163 -3.2681,-2.03807 -8.40574,0.0632 -10.61898,4.34314 -2.69645,5.21436 -1.93003,17.3927 1.32062,20.98463 3.14308,3.47307 7.47318,3.19871 10.51327,-0.66614 z m 29.84162,8.11286 c -1.90418,-1.10908 -2.1875,-3.35952 -2.1875,-17.37505 0,-15.7456 -0.0621,-16.10977 -2.8125,-16.50039 -1.80745,-0.2567 -2.95524,-1.40449 -3.21194,-3.21194 -0.32531,-2.2906 0.19658,-2.8125 2.8125,-2.8125 3.06377,0 3.21194,-0.32032 3.21194,-6.94349 l 0,-6.94349 5.9375,0.38099 5.9375,0.38099 0.37783,6.5625 0.37782,6.5625 4.78161,0 c 4.85745,0 8.47336,2.55576 6.99658,4.94524 -0.44352,0.71762 -3.30444,1.30476 -6.35762,1.30476 l -5.55122,0 0,16.74126 c 0,14.11273 -0.31045,16.8604 -1.97724,17.5 -2.8337,1.0874 -5.81629,0.87578 -8.33526,-0.59138 z m 34.40301,-1.99563 c -16.91547,-10.96819 -9.97757,-37.90425 9.76296,-37.90425 9.70837,0 18.64653,4.89792 18.64653,10.21789 0,3.21201 -2.7947,2.83511 -6.25,-0.84289 -2.25695,-2.40242 -4.1903,-3.125 -8.36126,-3.125 -4.77964,0 -5.72034,0.4836 -7.90244,4.0625 -4.07744,6.68749 -3.04984,20.51702 1.76333,23.73086 3.12028,2.08347 10.00598,0.93995 13.29094,-2.20723 3.3125,-3.17358 7.45943,-3.19876 7.45943,-0.0453 0,1.76996 -4.41138,6.02169 -8.35533,8.05295 -5.08242,2.61762 -14.41853,1.71467 -20.05416,-1.93954 z"
         id="path3419"
         inkscape:connector-curvature="0" />
      <path
         style="fill:#da734f"
         d="m 438.68591,234.08904 c -1.21914,-1.46898 -1.10511,-3.05997 0.55992,-7.8125 2.67492,-7.63502 3.84244,-23.62283 2.05843,-28.1874 -2.59149,-6.63055 -9.64394,-6.10346 -13.01846,0.97298 -1.53928,3.2279 -2.12509,7.73708 -2.12509,16.35745 l 0,11.90108 -5.9375,-0.38099 -5.9375,-0.38099 -0.33756,-26.63201 -0.33756,-26.63202 5.96256,0.38202 5.96256,0.38201 0.625,8.50027 c 0.60754,8.26272 0.69488,8.44724 3.125,6.60226 1.46732,-1.114 5.17116,-1.91444 8.96659,-1.93778 15.00695,-0.0923 20.42079,14.24193 12.87724,34.09494 -2.35123,6.18792 -8.04782,14.61531 -9.87939,14.61531 -0.56833,0 -1.72224,-0.83008 -2.56424,-1.84463 z m -140.00943,-8.49903 c -7.60534,-4.0218 -10.27131,-9.39635 -9.75362,-19.66319 0.62473,-12.38986 6.62434,-18.74315 17.69972,-18.74315 4.56343,0 6.56111,0.75506 10.01053,3.78369 l 4.30938,3.78369 2.69423,-3.78369 c 1.48182,-2.08103 3.49967,-3.78369 4.48411,-3.78369 1.4786,0 1.78988,3.47827 1.78988,20 l 0,20 -4.92623,0 c -2.70943,0 -5.25296,-0.52866 -5.6523,-1.17481 -0.43038,-0.69637 -2.4803,-0.44184 -5.03362,0.625 -5.95857,2.48965 -9.37136,2.26161 -15.62208,-1.04385 z m 16.71477,-7.5326 c 3.39888,-4.57216 3.62463,-16.36275 0.40731,-21.27301 -3.01335,-4.59896 -8.50313,-4.55981 -12.16663,0.0868 -2.30607,2.92489 -2.64049,4.68202 -2.24255,11.78318 0.3359,5.99423 1.14364,9.09262 2.86678,10.99667 3.17928,3.51307 7.83409,2.84689 11.13509,-1.59361 z m 67.45896,9.01069 c -8.87084,-2.56984 -15.51794,-15.30885 -12.9548,-24.82759 2.85297,-10.59515 10.48974,-15.74171 21.94845,-14.79147 9.44086,0.78291 18.29515,7.50633 14.66542,11.13606 -1.12698,1.12698 -2.5168,0.55134 -5.9529,-2.4656 -5.21051,-4.57489 -9.00906,-4.95799 -13.57197,-1.36881 -6.17993,4.86114 -7.32769,19.67899 -1.94149,25.06519 3.52171,3.52172 10.80764,3.13266 14.90836,-0.79608 2.08833,-2.00075 4.06649,-2.87065 5.3809,-2.36627 2.8585,1.09692 2.6029,3.35314 -0.73397,6.47898 -5.39051,5.0496 -13.09181,6.44325 -21.748,3.93559 z m -162.05002,-0.66161 c -0.48921,-0.48922 -0.88948,-11.51131 -0.88948,-24.49353 l 0,-23.60405 7.1875,0.37488 7.1875,0.37488 0.625,10.625 0.625,10.625 7.09217,-7.14576 c 3.9007,-3.93016 8.1001,-8.85204 9.33201,-10.9375 1.86653,-3.15979 3.02825,-3.79174 6.97033,-3.79174 2.60177,0 4.73049,0.51199 4.73049,1.13775 0,1.44878 -8.63274,12.28665 -12.95774,16.26764 -1.81075,1.66672 -3.29226,3.67619 -3.29226,4.4655 0,0.78931 3.97052,7.01938 8.82337,13.84461 l 8.82338,12.4095 -5.85205,0.38727 c -3.21863,0.21299 -6.56422,0.11397 -7.43464,-0.22004 -0.87043,-0.33401 -4.54505,-4.89263 -8.16582,-10.13027 -3.62078,-5.23763 -7.02956,-9.07612 -7.57508,-8.52997 -0.54551,0.54616 -1.16112,4.93051 -1.368,9.74301 l -0.37616,8.75 -6.29802,0.36865 c -3.4639,0.20276 -6.69828,-0.0316 -7.1875,-0.52083 z m 49.11052,-27.97282 c 0,-32.14998 0.41017,-33.42971 7.43995,-23.21228 l 3.81005,5.53772 0,23.21228 0,23.21228 -5.625,0 -5.625,0 0,-28.75 z m 73.10122,27.1875 c -0.31366,-0.85938 -0.71788,-8.59375 -0.89826,-17.1875 -0.31774,-15.13787 -0.41565,-15.63745 -3.14046,-16.02444 -4.11894,-0.58498 -3.84142,-5.22556 0.3125,-5.22556 2.95829,0 3.125,-0.37043 3.125,-6.94349 l 0,-6.94349 5.9375,0.38099 5.9375,0.38099 0.37544,6.4937 0.37543,6.49371 5.23878,0.38129 c 3.8088,0.27722 5.35205,0.9784 5.65372,2.5688 0.32025,1.68832 -0.43838,2.1875 -3.32448,2.1875 -7.70777,0 -7.69389,-0.0329 -7.69389,18.25874 l 0,16.74126 -5.66423,0 c -3.39388,0 -5.89282,-0.62628 -6.23455,-1.5625 z"
         id="path3417"
         inkscape:connector-curvature="0" />
      <path
         style="fill:#ec6031"
         d="m 438.80702,234.23496 c -1.0586,-1.27553 -0.9188,-3.06608 0.56118,-7.1875 2.34497,-6.53028 3.71645,-21.50447 2.54264,-27.76141 -0.90224,-4.80936 -3.81722,-6.60853 -8.71526,-5.3792 -4.76055,1.19482 -7.03487,8.14971 -7.03487,21.51272 l 0,11.90108 -5.9375,-0.38099 -5.9375,-0.38099 -0.33756,-26.63201 -0.33756,-26.63202 5.96256,0.38202 5.96256,0.38201 0.36821,9.10941 0.3682,9.1094 3.23788,-2.5469 c 8.00805,-6.29914 21.45013,-1.32606 24.22003,8.96052 2.39229,8.88429 -1.35902,24.01713 -8.16591,32.94142 -3.60774,4.73 -4.65625,5.13382 -6.7571,2.60244 z m -139.77033,-8.4015 c -12.95431,-6.41231 -13.99355,-27.63558 -1.75363,-35.81237 6.82046,-4.55636 14.18776,-3.64353 21.23662,2.63128 1.81287,1.6138 3.17966,2.11265 3.48258,1.27106 1.26933,-3.52645 3.92739,-5.8459 5.85269,-5.10709 1.78152,0.68363 2.05576,3.29541 2.05576,19.5781 l 0,18.78923 -4.92623,0 c -2.70943,0 -5.25296,-0.52866 -5.6523,-1.17481 -0.43038,-0.69637 -2.4803,-0.44184 -5.03362,0.625 -5.83091,2.43631 -9.06572,2.26666 -15.26187,-0.8004 z m 16.09556,-7.4291 c 4.37226,-5.88442 4.52074,-18.79983 0.26507,-23.05551 -3.05372,-3.05372 -8.68374,-2.38736 -11.64588,1.37839 -3.24365,4.12363 -3.52057,14.99412 -0.54187,21.27125 1.75413,3.69657 2.59043,4.26317 5.81391,3.93891 2.26704,-0.22804 4.69755,-1.63374 6.10877,-3.53304 z m 67.33326,8.39626 c -2.55484,-0.8823 -6.00265,-3.7025 -8.4375,-6.90162 -3.53893,-4.64975 -4.11664,-6.40569 -4.11262,-12.5 0.005,-8.29199 2.85693,-13.90461 9.04639,-17.80626 5.89718,-3.7174 17.97399,-2.77147 24.08041,1.88612 4.47393,3.41245 5.49367,6.11189 2.91163,7.70768 -0.84691,0.52342 -2.58109,-0.50948 -4.14196,-2.46701 -1.67775,-2.1041 -4.39206,-3.64441 -7.23513,-4.10577 -3.89432,-0.63197 -5.0834,-0.20502 -8.25097,2.96255 -4.58375,4.58376 -6.06536,12.50926 -3.68564,19.71554 2.84972,8.62952 11.39393,10.4243 17.62663,3.7026 1.90831,-2.05802 3.66514,-2.87826 5.03715,-2.35177 2.88562,1.10732 2.64126,3.35456 -0.70569,6.48983 -5.58796,5.23456 -13.70251,6.57941 -22.1327,3.66811 z m -161.3048,-23.99195 0,-24.50565 6.5625,0.37782 6.5625,0.37783 0.36305,10.3125 c 0.19968,5.67187 0.78333,10.3125 1.29699,10.3125 1.25792,0 11.50404,-10.73924 15.80199,-16.5625 2.8123,-3.81035 4.2506,-4.6875 7.68633,-4.6875 2.32465,0 4.22664,0.51199 4.22664,1.13775 0,1.44878 -8.63274,12.28665 -12.95774,16.26764 -1.81075,1.66672 -3.29226,3.69217 -3.29226,4.50101 0,0.80884 3.01318,5.67012 6.69595,10.80283 3.68278,5.13272 7.68497,10.84164 8.89377,12.68649 l 2.1978,3.35428 -6.82529,0 -6.8253,0 -6.81145,-9.6875 c -3.74629,-5.32813 -7.34897,-9.6875 -8.00596,-9.6875 -0.65699,0 -1.47577,4.21875 -1.81952,9.375 l -0.625,9.375 -6.5625,0.37782 -6.5625,0.37783 0,-24.50565 z m 48.75,-4.375 c 0,-32.14998 0.41017,-33.42971 7.43995,-23.21228 l 3.81005,5.53772 0,23.21228 0,23.21228 -5.625,0 -5.625,0 0,-28.75 z m 73.75,11.99728 0,-16.75272 -3.75,-1.30725 c -4.68701,-1.63391 -4.83793,-3.64608 -0.3125,-4.16678 3.2586,-0.37494 3.45711,-0.77318 3.81443,-7.65175 l 0.37693,-7.25623 5.24807,0.38123 5.24807,0.38122 0.37487,7.1875 0.37489,7.1875 5.56261,0 c 4.11123,0 5.56263,0.48923 5.56263,1.875 0,1.23832 -1.23864,1.875 -3.64776,1.875 -7.60357,0 -7.60224,-0.003 -7.60224,18.25874 l 0,16.74126 -5.625,0 -5.625,0 0,-16.75272 z"
         id="path3415"
         inkscape:connector-curvature="0" />
      <path
         style="fill:#a16a57"
         d="m 439.16635,234.49054 c -0.53448,-0.8648 -0.34473,-1.10496 0.47347,-0.59929 1.65406,1.02227 8.4608,-8.54204 10.7687,-15.13135 2.93131,-8.36924 3.48565,-15.86289 1.58215,-21.38782 -0.97516,-2.83044 -1.29487,-4.85074 -0.71046,-4.48955 2.09054,1.29202 3.83835,11.05801 2.99069,16.7106 -1.16584,7.77435 -4.75399,16.85703 -8.70678,22.03939 -3.47066,4.55029 -4.94489,5.20885 -6.39777,2.85802 z M 301.78571,227.151 c -1.7023,-0.75374 -0.82033,-0.87663 2.76411,-0.38512 4.01973,0.5512 6.30974,0.10489 9.6875,-1.88803 2.43286,-1.43543 4.42339,-2.03764 4.42339,-1.33824 0,1.64935 -7.84009,4.91961 -11.52235,4.8062 -1.56896,-0.0483 -3.97765,-0.58598 -5.35265,-1.19481 z m 89.5354,0.011 c 7.14912,-1.20803 10.15464,-2.77042 13.49266,-7.01402 1.60359,-2.03861 2.59694,-2.60311 2.59694,-1.47578 0,4.60176 -9.45165,9.86396 -17.26887,9.61445 -4.48963,-0.14331 -4.4598,-0.17175 1.17927,-1.12463 z m -164.27434,-0.86016 6.51107,-0.49525 0.36393,-9.52364 c 0.27234,-7.1266 0.83587,-9.67871 2.23894,-10.13974 1.5081,-0.49554 1.58159,-0.26037 0.37555,1.20179 -0.8247,0.99984 -1.66845,5.73194 -1.875,10.51578 l -0.37555,8.69789 -6.875,0.11921 -6.875,0.11922 6.51106,-0.49526 z m 27.57383,-0.0241 c 2.24668,-0.27821 5.62168,-0.27246 7.5,0.0128 1.87831,0.28521 0.0401,0.51283 -4.08489,0.50582 -4.125,-0.007 -5.6618,-0.24038 -3.41511,-0.51858 z m 20.02937,-0.0119 5.36426,-0.48102 -0.36426,-23.55815 c -0.20034,-12.95699 0.0576,-23.29656 0.57324,-22.97683 0.51562,0.31973 0.9375,11.23564 0.9375,24.25756 l 0,23.67623 -5.9375,-0.21838 -5.9375,-0.21839 5.36426,-0.48102 z m 49.29024,0.009 4.65451,-0.48836 0.38159,-18.36397 0.38159,-18.36401 0.2764,19.0625 0.27641,19.0625 -5.3125,-0.21013 -5.3125,-0.21013 4.6545,-0.48836 z m 24.408,-0.007 5.3125,-0.47849 0,-17.42812 0,-17.42813 5.52084,0 c 3.24707,0 5.78049,-0.64352 6.15131,-1.5625 0.37665,-0.93343 0.67021,-0.6818 0.72916,0.625 0.0725,1.60614 -0.87075,2.1875 -3.54907,2.1875 -7.60357,0 -7.60224,-0.003 -7.60224,18.25874 l 0,16.74126 -5.9375,-0.21838 -5.9375,-0.21839 5.3125,-0.47849 z m 30.86391,-1.0287 c -2.38759,-1.91285 -2.38641,-1.92555 0.0736,-0.79391 1.375,0.63253 3.34375,1.4629 4.375,1.84528 1.61967,0.60055 1.60966,0.70866 -0.0736,0.79391 -1.07172,0.0543 -3.04047,-0.7761 -4.375,-1.84528 z m 40.38609,1.0287 5.3125,-0.47849 0,-11.8652 c 0,-11.6684 1.75469,-18.31516 5.48691,-20.78441 2.03145,-1.34401 7.9919,-1.15669 8.87924,0.27904 0.43816,0.70896 -0.0644,0.91791 -1.17902,0.49019 -3.71003,-1.42367 -7.66691,0.6542 -9.81204,5.15258 -1.5366,3.22231 -2.12509,7.73305 -2.12509,16.28896 l 0,11.83259 -5.9375,-0.21838 -5.9375,-0.21839 5.3125,-0.47849 z M 300.45512,213.74617 c -0.41427,-1.89063 -0.94326,-4.07137 -1.17552,-4.84609 -0.7441,-2.48193 1.95782,-12.22932 4.02221,-14.51044 1.1895,-1.31439 3.55999,-2.13027 5.86513,-2.01868 3.73832,0.18098 3.75379,0.20476 0.45877,0.70537 -1.8755,0.28495 -4.60115,2.02879 -6.057,3.87521 -2.24126,2.84254 -2.57452,4.65046 -2.17414,11.79463 0.5088,9.07872 0.25281,10.44116 -0.93945,5 z m 80.07463,-1.58966 c -2.18503,-9.94837 3.70152,-21.23932 11.05457,-21.2037 2.17326,0.0105 4.79514,0.55709 5.82639,1.21457 1.30482,0.83192 0.54449,0.98182 -2.50039,0.49296 -8.33441,-1.33811 -15.1495,8.5444 -13.16975,19.09736 0.97655,5.20542 -0.0788,5.55301 -1.21082,0.39881 z m -128.27848,-2.16034 c -1.55484,-1.98257 -1.51063,-2.02678 0.47194,-0.47194 2.08218,1.63296 2.74435,2.65944 1.71556,2.65944 -0.25957,0 -1.24395,-0.98438 -2.1875,-2.1875 z m -6.11146,-8.46268 c -1.32928,-1.60169 -0.40377,-3.12346 5.89175,-9.6875 4.10782,-4.28303 8.16917,-9.10112 9.02523,-10.70688 0.85606,-1.60576 1.86834,-2.60768 2.24952,-2.22651 1.02738,1.02738 -3.05289,6.79707 -10.02286,14.17278 -3.92094,4.14918 -5.90058,7.22276 -5.43444,8.4375 0.93253,2.43013 0.30207,2.43404 -1.7092,0.0106 z M 234.1044,190.30867 c -0.004,-6.1875 0.20757,-8.87635 0.46972,-5.97522 0.26216,2.90113 0.26527,7.96363 0.007,11.25 -0.2583,3.28637 -0.47279,0.91272 -0.4766,-5.27478 z m 170.76087,7.55476 c 0.83087,-1.00114 1.09846,-2.54801 0.59468,-3.4375 -0.71207,-1.2572 -0.55993,-1.2881 0.68336,-0.13878 1.79821,1.6623 0.86652,5.39652 -1.34643,5.39652 -1.05841,0 -1.04021,-0.48447 0.0684,-1.82024 z m -65.57956,-5.67976 c -2.38545,-1.02506 -2.37113,-1.07831 0.3125,-1.16214 1.54687,-0.0483 2.8125,0.47464 2.8125,1.16214 0,0.6875 -0.14063,1.21046 -0.3125,1.16214 -0.17188,-0.0483 -1.4375,-0.57128 -2.8125,-1.16214 z m 86.05351,-8.125 c 0.005,-5.5 0.2243,-7.59451 0.48836,-4.65446 0.26405,2.94005 0.26034,7.44005 -0.009,10 -0.26809,2.55995 -0.48415,0.15446 -0.47961,-5.34554 z m -71.30394,-3.125 c 0,-3.78125 0.23434,-5.32813 0.52074,-3.4375 0.28642,1.89062 0.28642,4.98437 0,6.875 -0.2864,1.89062 -0.52074,0.34375 -0.52074,-3.4375 z"
         id="path3413"
         inkscape:connector-curvature="0" />
      <path
         style="fill:#6b6b6a"
         d="m 441.21151,235.53389 c -0.0279,-0.56363 1.65948,-3.51058 3.7498,-6.54877 6.56896,-9.54765 9.77351,-22.58692 7.48765,-30.46714 -0.98633,-3.40025 -0.92489,-3.97079 0.29606,-2.74925 2.47934,2.48054 1.66341,17.27102 -1.38971,25.19166 -2.38268,6.18129 -10.01616,17.14825 -10.1438,14.5735 z M 301.78571,227.151 c -1.7023,-0.75374 -0.82033,-0.87663 2.76411,-0.38512 4.01973,0.5512 6.30974,0.10489 9.6875,-1.88803 2.43286,-1.43543 4.42339,-2.03764 4.42339,-1.33824 0,1.64935 -7.84009,4.91961 -11.52235,4.8062 -1.56896,-0.0483 -3.97765,-0.58598 -5.35265,-1.19481 z m 85.625,0.59591 c 1.03125,-0.21822 3.9964,-0.74322 6.58922,-1.16666 2.62533,-0.42875 6.64098,-2.4616 9.0625,-4.58773 4.73977,-4.16157 6.10972,-3.14467 1.53578,1.13999 -3.75189,3.51461 -8.84921,5.33267 -14.45637,5.15616 -2.53337,-0.0797 -3.76238,-0.32355 -2.73113,-0.54176 z m -159.73889,-1.4395 5.88612,-0.50652 0.36388,-9.52079 c 0.27229,-7.1241 0.83589,-9.67589 2.23889,-10.13689 1.5081,-0.49554 1.58159,-0.26037 0.37555,1.20179 -0.8247,0.99984 -1.66845,5.73194 -1.875,10.51578 l -0.37555,8.69789 -6.25,0.12763 -6.25,0.12762 5.88611,-0.50651 z m 27.56858,-0.0207 c 1.90007,-0.28731 4.71257,-0.27964 6.25,0.0171 1.53742,0.2967 -0.0172,0.53178 -3.45469,0.52239 -3.4375,-0.009 -4.69539,-0.25214 -2.79531,-0.53946 z m 19.9549,0.0347 4.65958,-0.53533 0.38513,-22.73871 0.38512,-22.73871 -0.0447,23.125 -0.0447,23.125 -5,0.14904 -5,0.14904 4.65959,-0.53533 z m 49.68243,0.16051 3.71703,-0.70174 0.39738,-18.04975 0.39739,-18.04976 -0.0519,18.439 -0.0519,18.43899 -4.0625,0.3125 c -3.94422,0.3034 -3.95428,0.29207 -0.34548,-0.38924 z m 24.09548,-0.20885 4.6875,-0.49032 0,-17.42455 0,-17.42454 5.52084,0 c 3.24707,0 5.78049,-0.64352 6.15131,-1.5625 0.37665,-0.93343 0.67021,-0.6818 0.72916,0.625 0.0725,1.60614 -0.87075,2.1875 -3.54907,2.1875 -7.60357,0 -7.60224,-0.003 -7.60224,18.25874 l 0,16.74126 -5.3125,-0.21013 -5.3125,-0.21013 4.6875,-0.49033 z m 71.25,0 4.6875,-0.49032 0,-11.86162 c 0,-16.16051 2.76484,-21.78637 10.625,-21.61965 3.89175,0.0826 3.4759,0.42788 -1.93741,1.60889 -5.18102,1.13032 -7.43759,7.63544 -7.43759,21.4407 l 0,11.83259 -5.3125,-0.21013 -5.3125,-0.21013 4.6875,-0.49033 z m -119.61559,-11.9019 c -1.4614,-4.81099 -1.57551,-7.65777 -0.499,-12.44894 1.56959,-6.98575 4.22463,-9.78527 9.05832,-9.55127 3.73832,0.18098 3.75379,0.20476 0.45877,0.70537 -1.87549,0.28495 -4.58963,2.01775 -6.03141,3.85067 -2.16018,2.74623 -2.5499,4.71198 -2.215,11.17225 0.39752,7.66819 0.18273,9.4139 -0.77168,6.27192 z m 79.92213,-2.21466 c -2.18503,-9.94837 3.70152,-21.23932 11.05457,-21.2037 2.17326,0.0105 4.79514,0.55709 5.82639,1.21457 1.30482,0.83192 0.54449,0.98182 -2.50039,0.49296 -8.33441,-1.33811 -15.1495,8.5444 -13.16975,19.09736 0.97655,5.20542 -0.0788,5.55301 -1.21082,0.39881 z M 234.1044,190.30867 c -0.004,-6.1875 0.20757,-8.87635 0.46972,-5.97522 0.26216,2.90113 0.26527,7.96363 0.007,11.25 -0.2583,3.28637 -0.47279,0.91272 -0.4766,-5.27478 z m 10.80631,9.79366 c 0,-0.45723 3.27581,-4.25411 7.27957,-8.4375 4.00376,-4.18339 7.89907,-8.72647 8.65624,-10.09575 0.75718,-1.36927 1.69353,-2.17274 2.08078,-1.78548 0.90236,0.90235 -3.50401,6.8642 -10.98221,14.859 -5.75355,6.15101 -7.03438,7.14512 -7.03438,5.45973 z m 160.02507,-2.32387 c 0.86965,-1.04786 1.8386,-1.64779 2.15323,-1.33316 0.86686,0.86687 -0.89444,3.23837 -2.40512,3.23837 -0.82888,0 -0.73404,-0.71723 0.25189,-1.90521 z m -65.65007,-5.59479 c -2.38545,-1.02506 -2.37113,-1.07831 0.3125,-1.16214 1.54687,-0.0483 2.8125,0.47464 2.8125,1.16214 0,0.6875 -0.14063,1.21046 -0.3125,1.16214 -0.17188,-0.0483 -1.4375,-0.57128 -2.8125,-1.16214 z m 86.04526,-7.5 c 0,-5.15625 0.22064,-7.26563 0.49033,-4.6875 0.26967,2.57812 0.26967,6.79687 0,9.375 -0.26969,2.57812 -0.49033,0.46875 -0.49033,-4.6875 z m -71.31275,-3.125 c 0.01,-3.4375 0.25215,-4.69539 0.53946,-2.79531 0.28733,1.90007 0.27964,4.71257 -0.017,6.25 -0.29676,1.53742 -0.53183,-0.0172 -0.52246,-3.45469 z"
         id="path3411"
         inkscape:connector-curvature="0" />
      <path
         style="fill:#b8512e"
         d="m 444.92155,229.04292 c 2.13451,-3.10241 4.70126,-7.74304 5.70388,-10.3125 1.54673,-3.96387 1.71423,-4.10353 1.10548,-0.92175 -0.80838,4.22523 -8.03795,16.875 -9.64436,16.875 -0.57527,0 0.70048,-2.53834 2.835,-5.64075 z M 225.2404,226.28669 c 1.90007,-0.28732 4.71257,-0.27964 6.25,0.0171 1.53742,0.2967 -0.0172,0.53178 -3.45469,0.52239 -3.4375,-0.009 -4.69539,-0.25214 -2.79531,-0.53946 z m 30,0 c 1.90007,-0.28732 4.71257,-0.27964 6.25,0.0171 1.53742,0.2967 -0.0172,0.53178 -3.45469,0.52239 -3.4375,-0.009 -4.69539,-0.25214 -2.79531,-0.53946 z m 19.9549,0.0347 4.65958,-0.53533 0.38513,-22.73871 0.38512,-22.73871 -0.0447,23.125 -0.0447,23.125 -5,0.14904 -5,0.14904 4.65959,-0.53533 z m 36.06958,0.48392 c 3.56318,-2.58823 7.39583,-4.4544 7.39583,-3.60113 0,0.593 -1.43272,1.73096 -3.18382,2.52882 -2.9198,1.33035 -5.45621,1.97608 -4.21201,1.07231 z m 13.61285,-0.32341 3.71703,-0.70174 0.39738,-18.04975 0.39739,-18.04976 -0.0519,18.439 -0.0519,18.43899 -4.0625,0.3125 c -3.94422,0.3034 -3.95428,0.29207 -0.34548,-0.38924 z m 24.09548,-0.16218 4.6875,-0.53699 0,-17.42455 0,-17.42454 5.52084,0 c 3.24707,0 5.78049,-0.64352 6.15131,-1.5625 0.37665,-0.93343 0.67021,-0.6818 0.72916,0.625 0.08,1.77193 -0.96322,2.1875 -5.49104,2.1875 l -5.58972,0 -0.34778,17.1875 -0.34777,17.1875 -5,0.14904 -5,0.14904 4.6875,-0.53699 z m 48.43686,-0.5404 c 1.7184,-0.68522 4.27674,-2.19643 5.68521,-3.35826 1.40848,-1.16183 0.97802,-0.56555 -0.95657,1.32508 -1.9346,1.89062 -4.49294,3.40185 -5.68523,3.35827 -1.49233,-0.0546 -1.19428,-0.46742 0.95659,-1.32509 z m 22.81314,0.5404 4.6875,-0.53699 0,-11.86162 c 0,-13.95645 2.92405,-21.75883 8.125,-21.68032 0.6875,0.0104 0.27252,0.58836 -0.92218,1.28439 -4.01643,2.34002 -5.32456,6.71484 -5.95282,19.90846 l -0.625,13.125 -5,0.14904 -5,0.14904 4.6875,-0.53699 z m 32.43119,-16.01108 c 0.0255,-2.0625 0.30562,-2.75492 0.62255,-1.53871 0.31692,1.21621 0.29608,2.90371 -0.0464,3.75 -0.34235,0.84629 -0.60165,-0.14879 -0.57617,-2.21129 z m -72.42847,-2.5 c 0.0139,-2.75 0.26987,-3.72782 0.56886,-2.17293 0.29898,1.5549 0.28763,3.80489 -0.0252,5 -0.31284,1.19511 -0.55748,-0.0771 -0.54361,-2.82707 z m -146.56522,0.74805 c 0,-1.29805 2.37777,-3.17715 3.08209,-2.43572 0.22867,0.24072 -0.37126,1.16297 -1.33316,2.04945 -0.96191,0.88648 -1.74893,1.06031 -1.74893,0.38627 z m 66.34868,-7.10222 c 0.06,-1.45617 0.35618,-1.75237 0.75521,-0.75521 0.36109,0.90235 0.31668,1.98047 -0.0987,2.39584 -0.41536,0.41536 -0.7108,-0.32292 -0.65652,-1.64063 z m 81.20024,-0.73742 c -0.0269,-1.15038 1.40733,-3.82226 3.18719,-5.9375 2.59595,-3.08512 4.14141,-3.81747 7.8125,-3.70216 l 4.57639,0.14375 -4.41746,0.86558 c -5.95677,1.16721 -7.40914,2.21854 -9.40705,6.80948 -0.93645,2.15184 -1.72465,2.97122 -1.75157,1.82085 z m -136.29892,-0.64853 c 0,-0.62013 2.31794,-3.35104 5.15099,-6.0687 2.83304,-2.71765 6.77054,-7.13495 8.75,-9.81623 1.97945,-2.68128 3.59901,-4.27971 3.59901,-3.55208 0,1.5036 -9.47957,13.18351 -14.30129,17.62083 -1.75929,1.61903 -3.19871,2.43632 -3.19871,1.81618 z M 452.5094,198.9545 c 0.06,-1.45617 0.35617,-1.75237 0.7552,-0.75521 0.36108,0.90235 0.31668,1.98047 -0.0986,2.39584 -0.41537,0.41536 -0.7108,-0.32292 -0.65652,-1.64063 z m -151.34869,-1.29896 c 0,-2.12368 4.69375,-5.79312 6.49017,-5.07383 1.09202,0.43725 0.93205,0.68736 -0.48179,0.75328 -1.16414,0.0543 -2.99227,1.34884 -4.0625,2.87681 -1.07023,1.52798 -1.94588,2.17766 -1.94588,1.44374 z m 104.375,-0.47187 c 0.4249,-0.6875 1.0206,-1.25 1.32377,-1.25 0.30318,0 0.55123,0.5625 0.55123,1.25 0,0.6875 -0.5957,1.25 -1.32378,1.25 -0.72807,0 -0.97612,-0.5625 -0.55122,-1.25 z m 19.79526,-12.5 c 0,-5.15625 0.22064,-7.26563 0.49033,-4.6875 0.26967,2.57812 0.26967,6.79687 0,9.375 -0.26969,2.57812 -0.49033,0.46875 -0.49033,-4.6875 z m -86.98276,6.67215 c 0.85937,-0.34677 2.26562,-0.34677 3.125,0 0.85937,0.34676 0.15625,0.63048 -1.5625,0.63048 -1.71875,0 -2.42188,-0.28372 -1.5625,-0.63048 z m 15.67001,-9.79715 c 0.01,-3.4375 0.25215,-4.69539 0.53946,-2.79531 0.28733,1.90007 0.27964,4.71257 -0.017,6.25 -0.29676,1.53742 -0.53183,-0.0172 -0.52246,-3.45469 z"
         id="path3409"
         inkscape:connector-curvature="0" />
      <path
         style="fill:#944c33"
         d="m 443.03571,232.18367 c 1.24436,-1.375 2.4613,-2.5 2.70432,-2.5 0.24303,0 -0.26071,1.125 -1.11941,2.5 -0.8587,1.375 -2.07565,2.5 -2.70432,2.5 -0.62869,0 -0.125,-1.125 1.11941,-2.5 z m 5.24425,-8.1093 c 1.14335,-2.39762 2.30073,-4.13739 2.57195,-3.86617 0.57182,0.57183 -3.22275,8.22547 -4.07808,8.22547 -0.31497,0 0.36279,-1.96169 1.50613,-4.3593 z m -223.03956,2.21232 c 1.90007,-0.28732 4.71257,-0.27964 6.25,0.0171 1.53742,0.2967 -0.0172,0.53178 -3.45469,0.52239 -3.4375,-0.009 -4.69539,-0.25214 -2.79531,-0.53946 z m 30,0 c 1.90007,-0.28732 4.71257,-0.27964 6.25,0.0171 1.53742,0.2967 -0.0172,0.53178 -3.45469,0.52239 -3.4375,-0.009 -4.69539,-0.25214 -2.79531,-0.53946 z m 18.12238,0.0129 c 1.5549,-0.29899 3.80489,-0.28764 5,0.0252 1.19511,0.31286 -0.0771,0.55749 -2.82707,0.54362 -2.75,-0.0139 -3.72782,-0.26985 -2.17293,-0.56885 z m 49.36043,0.0224 c 1.20312,-0.31441 3.17187,-0.31441 4.375,0 1.20312,0.31441 0.21875,0.57166 -2.1875,0.57166 -2.40625,0 -3.39063,-0.25725 -2.1875,-0.57166 z m 26.2152,-1.8e-4 4.65271,-0.53492 0.40224,-16.8033 0.40224,-16.80329 -0.055,17.18917 -0.0549,17.18918 -5,0.14904 -5,0.14904 4.6527,-0.53492 z m 49.0973,-0.59688 c 1.375,-0.76049 3.6521,-2.29026 5.06021,-3.39949 1.40813,-1.10924 0.97738,-0.46992 -0.95721,1.42071 -1.9346,1.89062 -4.21169,3.42039 -5.06023,3.39949 -0.84852,-0.0209 -0.41777,-0.66023 0.95723,-1.42071 z m 22.14311,0.59745 4.64312,-0.53435 0.42473,-11.48969 0.42474,-11.48969 -0.0679,11.875 -0.0679,11.875 -5,0.14904 -5,0.14904 4.64311,-0.53435 z m -105.26811,-0.89991 c 0,-0.23799 0.84375,-1.13296 1.875,-1.98882 1.08074,-0.89694 1.875,-1.01842 1.875,-0.28679 0,0.69812 -0.84375,1.5931 -1.875,1.98882 -1.03125,0.39573 -1.875,0.52479 -1.875,0.28679 z M 451.2594,216.4545 c 0.06,-1.45618 0.35617,-1.75237 0.7552,-0.75521 0.36109,0.90235 0.31669,1.98047 -0.0986,2.39584 -0.41537,0.41536 -0.7108,-0.32292 -0.65652,-1.64063 z m 1.25,-5 c 0.06,-1.45618 0.35617,-1.75237 0.7552,-0.75521 0.36109,0.90235 0.31669,1.98047 -0.0986,2.39584 -0.41537,0.41536 -0.7108,-0.32292 -0.65652,-1.64063 z m -218.84869,-2.94706 c 0,-0.64693 0.55606,-1.51989 1.23568,-1.93992 0.70858,-0.43793 0.91814,0.0638 0.49127,1.17623 -0.83099,2.16552 -1.72695,2.56173 -1.72695,0.76369 z M 380.0094,206.4545 c 0.06,-1.45618 0.35617,-1.75237 0.7552,-0.75521 0.36109,0.90235 0.31669,1.98047 -0.0986,2.39584 -0.41537,0.41536 -0.7108,-0.32292 -0.65652,-1.64063 z m -80.00001,-5 c 0.06,-1.45618 0.35618,-1.75237 0.75521,-0.75521 0.36109,0.90235 0.31668,1.98047 -0.0987,2.39584 -0.41537,0.41536 -0.71081,-0.32292 -0.65653,-1.64063 z m 126.156,-1.28976 c -0.008,-2.09849 4.96662,-7.99516 6.64855,-7.88239 0.93552,0.0627 0.86511,0.34086 -0.19323,0.76334 -0.91575,0.36555 -2.74178,2.43052 -4.05783,4.58881 -1.31606,2.15829 -2.39493,3.2969 -2.3975,2.53024 z m -178.09576,-3.92923 c 2.04384,-1.8965 6.18454,-6.25587 9.20154,-9.6875 3.017,-3.43164 4.87895,-5.07389 4.13766,-3.64945 -1.82777,3.51217 -14.36918,16.78511 -15.86002,16.78511 -0.65739,0 0.47698,-1.55167 2.52082,-3.44816 z m 138.48314,-3.11434 c 1.3117,-1.20313 3.86946,-2.12992 5.68391,-2.05955 3.02478,0.11731 2.96196,0.20797 -0.75577,1.09055 -2.23014,0.52943 -4.7879,1.45623 -5.68391,2.05955 -0.89602,0.60332 -0.55592,0.11257 0.75577,-1.09055 z m 38.76811,-9.0625 c 0.005,-4.8125 0.23148,-6.62808 0.50208,-4.03462 0.27059,2.59346 0.26605,6.53096 -0.01,8.75 -0.27622,2.21904 -0.49763,0.0971 -0.49208,-4.71538 z m -71.30266,-2.5 c 0.01,-3.4375 0.25215,-4.69539 0.53946,-2.79531 0.28733,1.90007 0.27964,4.71257 -0.017,6.25 -0.29676,1.53742 -0.53183,-0.0172 -0.52246,-3.45469 z"
         id="path3407"
         inkscape:connector-curvature="0" />
      <path
         style="fill:#765347"
         d="m 442.41071,233.79506 c 0,-0.7179 0.98437,-2.07728 2.1875,-3.02083 2.02345,-1.5869 2.04997,-1.52807 0.35371,0.78444 -1.00859,1.375 -1.99296,2.73437 -2.1875,3.02083 -0.19454,0.28646 -0.35371,-0.0665 -0.35371,-0.78444 z m -127.5,-8.37257 c 0,-0.23799 0.84375,-1.13296 1.875,-1.98882 1.08074,-0.89694 1.875,-1.01842 1.875,-0.28679 0,0.69812 -0.84375,1.5931 -1.875,1.98882 -1.03125,0.39573 -1.875,0.52479 -1.875,0.28679 z m 39.2432,-16.36382 c 0.002,-9.625 0.19816,-13.39727 0.43604,-8.38281 0.23787,5.01445 0.23627,12.88945 -0.004,17.5 -0.23962,4.61054 -0.43424,0.50781 -0.43229,-9.11719 z m 71.19356,6.875 c 0,-5.84375 0.21533,-8.23438 0.4785,-5.3125 0.26316,2.92187 0.26316,7.70312 0,10.625 -0.26317,2.92187 -0.4785,0.53125 -0.4785,-5.3125 z m -191.68676,-7.42623 c 0,-0.64693 0.55606,-1.51989 1.23568,-1.93992 0.70858,-0.43793 0.91814,0.0638 0.49127,1.17623 -0.83099,2.16552 -1.72695,2.56173 -1.72695,0.76369 z m 15,-11.71491 c 0,-0.21512 1.82812,-2.04325 4.0625,-4.0625 l 4.0625,-3.67136 -3.67136,4.0625 c -3.42223,3.78682 -4.45364,4.63707 -4.45364,3.67136 z m 181.53274,-2.83226 c 1.18676,-1.23904 2.4268,-1.98373 2.75565,-1.65488 0.32885,0.32886 -0.64213,1.34261 -2.15774,2.25279 -2.63289,1.58115 -2.65952,1.55451 -0.59791,-0.59791 z m -4.87257,-9.9016 c 0.005,-4.8125 0.23148,-6.62808 0.50208,-4.03462 0.27059,2.59346 0.26605,6.53096 -0.01,8.75 -0.27622,2.21904 -0.49763,0.0971 -0.49208,-4.71538 z m -167.28517,1.875 c 1.24436,-1.375 2.54372,-2.5 2.88747,-2.5 0.34375,0 -0.39311,1.125 -1.63747,2.5 -1.24436,1.375 -2.54372,2.5 -2.88747,2.5 -0.34375,0 0.39311,-1.125 1.63747,-2.5 z m 95.98251,-4.375 c 0.01,-3.4375 0.25215,-4.69539 0.53946,-2.79531 0.28733,1.90007 0.27964,4.71257 -0.017,6.25 -0.29676,1.53742 -0.53183,-0.0172 -0.52246,-3.45469 z"
         id="path3405"
         inkscape:connector-curvature="0" />
      <path
         style="fill:#623b2d"
         d="m 442.41071,232.96173 c 0,-0.25957 0.98437,-1.24395 2.1875,-2.1875 1.98257,-1.55484 2.02679,-1.51063 0.47195,0.47194 -1.63296,2.08218 -2.65945,2.74435 -2.65945,1.71556 z m -127.5,-7.5 c 0,-0.25957 0.98437,-1.24395 2.1875,-2.1875 1.98257,-1.55484 2.02678,-1.51063 0.47194,0.47194 -1.63296,2.08219 -2.65944,2.74435 -2.65944,1.71556 z m 113.75,-30 c 0,-0.25957 0.98437,-1.24395 2.1875,-2.1875 1.98257,-1.55484 2.02679,-1.51063 0.47195,0.47194 -1.63296,2.08219 -2.65945,2.74435 -2.65945,1.71556 z m -172.5,-7.5 c 0,-0.25957 0.98437,-1.24395 2.1875,-2.1875 1.98257,-1.55484 2.02678,-1.51063 0.47194,0.47194 -1.63296,2.08219 -2.65944,2.74435 -2.65944,1.71556 z"
         id="path3403"
         inkscape:connector-curvature="0" />
    </g>
  </g>
</svg>
